<svg xmlns="http://www.w3.org/2000/svg" viewBox="0 0 67.82 90.56"><defs><style>.cls-1{fill:#231f20;}.cls-2{fill:#92a5a1;}.cls-3{fill:#494546;opacity:0.09;}</style></defs><title>Asset 24</title><g id="Layer_2" data-name="Layer 2"><g id="Layer_1-2" data-name="Layer 1"><polygon class="cls-1" points="27.96 16.78 17.98 17.44 18.46 13.47 18.46 13.46 19.93 1.09 26.27 13.46 26.27 13.47 27.96 16.78"/><polygon class="cls-1" points="38.86 16.76 35.09 17 35.05 17 34.45 17.03 34.44 17.03 33.41 17.1 27.96 17.44 28.43 13.47 28.43 13.46 30.04 0 33.41 6.4 34.44 8.35 34.45 8.37 37.12 13.46 37.13 13.47 38.06 15.24 38.86 16.76"/><polygon class="cls-2" points="54.82 68.84 54.84 68.81 55.25 68.01 57.09 64.47 57.27 64.13 67.82 43.77 46.56 15.24 40.63 15.24 38.05 15.24 34.44 15.24 35.05 16.95 35.07 16.95 52.33 64.13 52.46 64.47 53.75 68.01 54.06 68.84 54.82 68.84"/><polygon class="cls-1" points="54.85 40.89 54.85 70.34 54.83 70.38 54.06 70.38 53.76 69.52 10.94 69.52 10.94 66.35 11.37 65.88 11.72 65.53 33.41 42.95 34.44 41.88 34.89 41.39 34.44 41.54 33.41 41.88 11.75 48.95 11.29 52.57 6.29 54.84 6.29 51.89 0.41 52.57 0.41 39.74 17.65 13.47 39.66 13.47 40.63 15.24 54.85 40.89"/><polygon class="cls-2" points="19.27 30.61 15.05 26.07 19.27 21.52 23.49 26.07 19.27 30.61"/><polygon class="cls-2" points="7.6 48.21 0.41 49.39 0.4 49.39 0.08 49.44 0 40.1 0.4 40.54 0.41 40.55 7.6 48.21"/><polygon class="cls-1" points="64.12 90.04 34.44 90.29 1.28 90.56 1.2 80.13 1.24 80.13 34.44 79.85 64.03 79.61 64.03 80.03 64.12 90.04"/><polygon class="cls-1" points="64.03 79.55 64.03 80.03 34.44 80.25 32.64 80.26 32.15 80.27 1.24 80.51 1.24 80.09 10.57 72.98 10.93 72.97 32.09 72.81 32.4 72.81 34.44 72.79 35 72.79 54.5 72.64 54.71 72.79 64.03 79.55"/><rect class="cls-2" x="10.71" y="68.85" width="44.12" height="3.94"/><polygon class="cls-3" points="34.44 8.35 34.44 41.54 33.41 41.88 11.75 48.95 11.29 52.57 6.29 54.84 6.29 51.89 0.41 52.57 0.41 49.39 0.4 49.39 0.08 49.44 0 40.1 0.4 40.54 0.41 40.55 0.41 39.74 17.65 13.47 18.46 13.47 18.46 13.46 19.93 1.09 26.27 13.46 26.27 13.47 28.43 13.47 28.43 13.46 30.04 0 33.41 6.4 34.44 8.35"/><polygon class="cls-3" points="33.41 42.95 34.44 41.88 34.44 72.79 10.71 72.79 10.71 68.85 10.94 68.85 10.94 66.35 11.37 65.88 11.72 65.53 33.41 42.95"/><polygon class="cls-3" points="32.4 72.81 34.44 72.79 34.44 90.29 1.28 90.56 1.2 80.13 1.24 80.13 1.24 80.09 10.57 72.98 10.93 72.97 32.09 72.81 32.4 72.81"/></g></g></svg>