<svg xmlns="http://www.w3.org/2000/svg" viewBox="0 0 44.39 66.28"><defs><style>.cls-1{fill:#0a0e0f;}.cls-2{fill:#92a5a1;}.cls-3{fill:#fff;opacity:0.11;}</style></defs><title>Asset 21</title><g id="Layer_2" data-name="Layer 2"><g id="Layer_1-2" data-name="Layer 1"><polygon class="cls-1" points="34.02 19.66 34.02 19.87 30.38 23.41 22.28 23.42 13.27 23.43 9.57 19.93 9.56 19.68 22.21 19.67 34.02 19.66"/><polygon class="cls-2" points="30.73 23.42 30.73 26.47 30.69 26.47 22.33 26.48 13.01 26.48 13 26.48 12.99 23.43 13.27 23.43 22.28 23.43 30.38 23.41 30.73 23.42"/><polygon class="cls-2" points="29.11 17.61 29.11 19.6 22.21 19.61 14.97 19.61 14.97 17.63 22.18 17.62 29.11 17.61"/><polygon class="cls-1" points="29.1 14.15 29.11 15.17 29.11 17.61 22.18 17.62 14.97 17.63 14.97 15.18 14.97 14.17 22.12 14.16 29.1 14.15"/><polygon class="cls-1" points="43.64 50.47 22.73 50.48 0.49 50.5 0.55 50.39 13.01 26.48 22.33 26.48 30.69 26.47 43.56 50.33 43.64 50.47"/><polygon class="cls-1" points="44.38 59.72 44.39 59.98 44.39 66.25 22.99 66.26 0.01 66.28 0.01 59.98 0.01 59.75 22.88 59.73 44.38 59.72"/><polygon class="cls-1" points="44.38 59.67 44.39 59.98 22.88 59.97 22.19 59.97 21.85 59.98 0.01 59.98 0 59.98 0.01 59.75 0.01 59.72 6.63 55.3 6.89 55.31 21.84 55.3 22.07 55.3 22.8 55.3 37.69 55.3 44.38 59.67"/><polygon class="cls-1" points="43.64 50.33 43.64 50.5 37.18 53.39 22.77 53.42 22.41 53.42 21.89 53.42 13.98 53.43 7 53.44 6.98 53.44 0.64 50.66 0.49 50.59 0.49 50.39 0.77 50.39 21.89 50.37 22.72 50.35 43.56 50.33 43.64 50.33"/><polygon class="cls-2" points="37.61 53.42 37.61 55.28 22.8 55.29 6.89 55.31 6.89 53.44 6.98 53.44 13.98 53.43 22.77 53.42 37.61 53.42"/><path class="cls-1" d="M32.35,8.77a8.19,8.19,0,0,1-3.24,6.4,11.38,11.38,0,0,1-6.93,2.38h-.32A11.22,11.22,0,0,1,15,15.18a8.17,8.17,0,0,1-3.26-6.39C11.71,4,16.23.09,21.85,0H22C27.73,0,32.35,3.93,32.35,8.77Z"/><path class="cls-3" d="M21.89,0l.32,19.61H15V15.18a8.17,8.17,0,0,1-3.26-6.39C11.71,4,16.23.09,21.85,0Z"/><polygon class="cls-3" points="9.56 19.68 22.21 19.67 22.99 66.26 0.01 66.28 0.01 59.98 0 59.98 0.01 59.75 0.01 59.72 6.63 55.3 6.89 55.31 6.89 53.44 6.98 53.44 0.64 50.66 0.49 50.59 0.49 50.39 0.55 50.39 13.01 26.48 13 26.48 12.99 23.43 13.27 23.43 9.57 19.93 9.56 19.68"/></g></g></svg>