<svg xmlns="http://www.w3.org/2000/svg" viewBox="0 0 89.05 71.88"><defs><style>.cls-1{fill:#231f20;}.cls-2{fill:#92a5a1;}.cls-3{fill:#fdfefe;opacity:0.09;}</style></defs><title>Asset 25</title><g id="Layer_2" data-name="Layer 2"><g id="Layer_1-2" data-name="Layer 1"><ellipse class="cls-1" cx="85.23" cy="10.39" rx="3.82" ry="3.94"/><rect class="cls-2" x="26.41" y="49.68" width="36.26" height="4.9"/><rect class="cls-1" x="22.84" y="41.64" width="43.67" height="8.28"/><polygon class="cls-1" points="39.47 35.12 34.2 41.64 32.27 44.01 27.7 49.68 27.52 49.88 27.38 49.68 22.84 42.43 5.58 15.05 3.35 11.52 6.93 13.86 32.27 30.42 39.47 35.12"/><polygon class="cls-1" points="64.2 48.6 86.2 8.89 51.65 34.69 64.2 48.6"/><polygon class="cls-1" points="50.09 42.95 45.34 44.46 45.08 44.55 44.89 44.61 44.68 44.67 44.66 44.68 32.27 48.62 32.27 2.85 34.27 7.31 44.89 31.27 45.07 31.68 45.07 31.69 45.08 31.7 45.34 32.26 49.5 41.64 50.09 42.95"/><polygon class="cls-1" points="58.27 46.34 45.34 44.74 45.08 44.71 44.68 44.67 44.66 44.67 39.75 44.06 40.8 41.64 40.8 41.63 45.07 31.69 45.07 31.68 45.08 31.67 45.34 31.06 55.5 7.41 57.72 2.24 57.79 7.82 57.79 7.83 58.07 29.89 58.2 41.63 58.2 41.64 58.22 41.97 58.27 46.34"/><path class="cls-1" d="M7.63,11.58a4,4,0,0,1-.7,2.28,3.69,3.69,0,0,1-1.35,1.19,3.4,3.4,0,0,1-1.75.47,3.94,3.94,0,0,1,0-7.87A3.87,3.87,0,0,1,7.63,11.58Z"/><path class="cls-1" d="M36.09,4a4,4,0,0,1-1.82,3.35,3.63,3.63,0,0,1-2,.58A3.87,3.87,0,0,1,28.46,4a3.82,3.82,0,1,1,7.63,0Z"/><ellipse class="cls-1" cx="57.29" cy="3.94" rx="3.82" ry="3.94"/><rect class="cls-1" x="15.86" y="61.46" width="58.44" height="10.42"/><polygon class="cls-1" points="74.3 61.4 74.3 61.88 45.08 61.85 44.63 61.85 15.86 61.83 15.86 61.41 24.6 54.38 26.41 54.38 44.63 54.39 45.08 54.39 62.67 54.41 65.49 54.41 74.3 61.4"/><path class="cls-3" d="M45.08,31.67V71.88H15.86V61.41l8.74-7h1.81V49.92H22.84V42.43L5.58,15.05a3.4,3.4,0,0,1-1.75.47,3.94,3.94,0,0,1,0-7.87,3.87,3.87,0,0,1,3.8,3.93,4,4,0,0,1-.7,2.28L32.27,30.42V7.89A3.87,3.87,0,0,1,28.46,4a3.82,3.82,0,1,1,7.63,0,4,4,0,0,1-1.82,3.35l10.62,24,.18.41Z"/></g></g></svg>