<svg xmlns="http://www.w3.org/2000/svg" viewBox="0 0 585.89 645.56"><defs><style>.cls-1{fill:#231f20;}.cls-2{fill:#92a5a1;}.cls-3{fill:#fff;opacity:0.09;}</style></defs><title>Asset 32</title><g id="Layer_2" data-name="Layer 2"><g id="Layer_1-2" data-name="Layer 1"><rect class="cls-1" x="432.6" width="109.6" height="175.84"/><rect class="cls-1" x="228.65" y="0.08" width="118.88" height="175.68"/><rect class="cls-2" x="88" y="383.84" width="408.29" height="56.64"/><rect class="cls-1" y="520.4" width="585.89" height="125.16"/><rect class="cls-1" x="88" y="226.48" width="408.29" height="157.36"/><polygon class="cls-1" points="585.89 519.68 585.89 525.44 293 525.08 286.53 525.08 0 524.96 0 519.92 87.7 435.68 90.95 435.68 286.53 435.92 292.94 435.92 495.78 436.04 497.59 436.04 585.89 519.68"/><polygon class="cls-1" points="542.21 159.52 542.21 205.4 497.09 249.04 496.29 249.04 493.85 249 297.41 248.6 288.09 248.6 91.13 248.32 89.33 248.32 88 247.05 39.89 201.04 39.89 158.68 42.77 158.68 150.89 158.92 228.65 159.08 288.09 159.2 297.49 159.2 347.53 159.28 432.6 159.36 432.61 159.36 542.2 159.52 542.21 159.52"/><rect class="cls-1" x="39.89" y="0.08" width="111" height="175.68"/><polygon class="cls-3" points="292.14 0 292.14 645.48 0 645.48 0 519.84 87.46 435.6 87.76 435.6 87.76 246.97 39.78 200.96 39.78 0 150.48 0 150.48 158.84 228.03 159 228.03 0 292.14 0"/></g></g></svg>