<svg xmlns="http://www.w3.org/2000/svg" viewBox="0 0 48.67 72.59"><defs><style>.cls-1{fill:#92a5a1;}.cls-2{fill:#fdfefe;}.cls-3{opacity:0.1;}</style></defs><title>Asset 19</title><g id="Layer_2" data-name="Layer 2"><g id="Layer_1-2" data-name="Layer 1"><rect class="cls-1" x="9.07" y="51.22" width="30.58" height="3.87"/><rect class="cls-2" x="9.07" y="44.49" width="30.58" height="6.73"/><polygon class="cls-2" points="48.67 22.58 39.65 47.15 39.62 47.22 39.38 47.87 9.32 47.87 9.08 47.22 9.07 47.15 0 22.58 21.82 8.57 24.35 6.95 24.36 6.96 24.86 7.28 26.87 8.57 35.31 14 24.86 26.18 24.36 26.77 24.35 26.78 23.3 27.99 24.35 27.29 24.36 27.28 24.86 26.95 39.81 16.89 48.67 22.58"/><path class="cls-2" d="M30.25,4.5a4.55,4.55,0,0,1-3.38,4.07,7.42,7.42,0,0,1-2,.43l-.5,0h0a7.07,7.07,0,0,1-2.53-.45A4.58,4.58,0,0,1,18.43,4.5C18.43,2,21.09,0,24.35,0h0l.5,0C27.88.21,30.25,2.14,30.25,4.5Z"/><rect class="cls-2" x="2.37" y="62.17" width="43.79" height="10.42"/><polygon class="cls-2" points="46.16 62.11 46.16 62.59 24.36 62.56 23.93 62.56 2.37 62.54 2.37 62.12 8.92 55.09 9.17 55.09 23.93 55.1 24.36 55.1 39.55 55.12 46.16 62.11"/><path class="cls-3" d="M24.36,0V72.59h-22V62.12l6.55-7h.15V47.15L0,22.58l21.82-14A4.58,4.58,0,0,1,18.43,4.5C18.43,2,21.09,0,24.35,0Z"/></g></g></svg>