<svg xmlns="http://www.w3.org/2000/svg" viewBox="0 0 585.89 645.55"><defs><style>.cls-1{fill:#fff;}.cls-2{fill:#92a5a1;}.cls-3{fill:#fdfefe;}.cls-4{opacity:0.08;}</style></defs><title>Asset 33</title><g id="Layer_2" data-name="Layer 2"><g id="Layer_1-2" data-name="Layer 1"><rect class="cls-1" x="432.6" width="109.6" height="175.84"/><rect class="cls-1" x="228.65" y="0.07" width="118.88" height="175.68"/><rect class="cls-2" x="88" y="383.83" width="408.29" height="56.64"/><rect class="cls-3" y="520.39" width="585.89" height="125.16"/><rect class="cls-1" x="88" y="226.47" width="408.29" height="157.36"/><polygon class="cls-3" points="585.89 519.67 585.89 525.43 293 525.07 286.53 525.07 0 524.95 0 519.91 87.7 435.67 90.95 435.67 286.53 435.91 292.94 435.91 495.78 436.03 497.59 436.03 585.89 519.67"/><polygon class="cls-1" points="542.21 159.51 542.21 205.39 497.09 249.03 496.29 249.03 493.85 248.99 297.41 248.59 288.09 248.59 91.13 248.31 89.33 248.31 88 247.04 39.89 201.03 39.89 158.67 42.77 158.67 150.89 158.91 228.65 159.07 288.09 159.19 297.49 159.19 347.53 159.27 432.6 159.35 432.61 159.35 542.2 159.51 542.21 159.51"/><rect class="cls-1" x="39.89" y="0.07" width="111" height="175.68"/><polygon class="cls-4" points="288.09 0.07 288.09 645.55 0 645.55 0 519.91 87.7 435.67 88 435.67 88 247.04 39.89 201.03 39.89 0.07 150.89 0.07 150.89 158.91 228.65 159.07 228.65 0.07 288.09 0.07"/></g></g></svg>