<svg xmlns="http://www.w3.org/2000/svg" viewBox="0 0 67.88 78.5"><defs><style>.cls-1{fill:#92a5a1;}.cls-2{fill:#231f20;}.cls-3{fill:#fff;opacity:0.08;}</style></defs><title>Asset 26</title><g id="Layer_2" data-name="Layer 2"><g id="Layer_1-2" data-name="Layer 1"><rect class="cls-1" x="15.23" y="55.6" width="35" height="5.74"/><polygon class="cls-2" points="39.19 28.48 38.46 28.85 36.85 29.68 34.28 31 33.94 31.17 33.55 31.37 31.9 32.21 23.73 36.39 0 48.54 0 8.42 24.61 21.02 31.46 24.52 33.55 25.59 33.94 25.79 34.28 25.96 37.73 27.73 38.02 27.88 39.19 28.48"/><polygon class="cls-2" points="28.68 28.48 67.88 48.54 67.88 8.42 28.68 28.48"/><polygon class="cls-2" points="56.18 0 42.1 21.61 42.09 21.62 38.02 27.88 37.92 28.03 36.85 29.68 35.39 31.91 34.28 33.62 33.55 34.74 31.9 32.21 29.87 29.09 29.86 29.08 29.27 28.18 29.18 28.03 24.61 21.02 10.92 0 56.18 0"/><polygon class="cls-2" points="56.18 56.06 10.92 56.06 23.73 36.39 28.83 28.56 28.83 28.55 28.98 28.33 28.99 28.32 29.18 28.03 31.46 24.52 33.55 21.32 34.28 22.44 35.83 24.82 37.73 27.73 37.92 28.03 38.46 28.85 42.97 35.79 42.98 35.8 56.18 56.06"/><rect class="cls-2" x="5.07" y="68.08" width="56.22" height="10.42"/><polygon class="cls-2" points="61.29 68.02 61.29 68.5 34.28 68.47 32.74 68.47 5.07 68.45 5.07 68.03 13.48 61 15.23 61 32.74 61.01 34.28 61.01 50.23 61.03 52.81 61.03 61.29 68.02"/><polygon class="cls-3" points="34.28 0 34.28 78.5 5.07 78.5 5.07 68.03 13.48 61 15.23 61 15.23 56.06 10.92 56.06 23.73 36.39 0 48.54 0 8.42 24.61 21.02 10.92 0 34.28 0"/></g></g></svg>