<svg xmlns="http://www.w3.org/2000/svg" viewBox="0 0 67.88 78.85"><defs><style>.cls-1{fill:#92a5a1;}.cls-2{fill:#fdfefe;}.cls-3{opacity:0.09;}</style></defs><title>Asset 20</title><g id="Layer_2" data-name="Layer 2"><g id="Layer_1-2" data-name="Layer 1"><rect class="cls-1" x="15.23" y="55.6" width="35" height="5.74"/><polygon class="cls-2" points="39.19 28.48 38.46 28.85 36.85 29.68 33.94 31.17 33.55 31.37 31.9 32.21 23.73 36.39 0 48.54 0 8.42 24.61 21.02 31.46 24.52 33.55 25.59 33.94 25.79 37.73 27.73 38.02 27.88 39.19 28.48"/><polygon class="cls-2" points="28.68 28.48 67.88 48.54 67.88 8.42 28.68 28.48"/><polygon class="cls-2" points="56.18 0 42.1 21.61 38.02 27.88 37.92 28.03 36.85 29.68 35.39 31.91 33.55 34.74 31.9 32.21 29.87 29.09 29.27 28.18 29.18 28.03 24.61 21.02 10.92 0 56.18 0"/><polygon class="cls-2" points="56.18 56.06 10.92 56.06 23.73 36.39 28.83 28.56 28.99 28.32 29.18 28.03 31.46 24.52 33.55 21.32 35.83 24.82 37.73 27.73 37.92 28.03 38.46 28.85 42.98 35.8 56.18 56.06"/><rect class="cls-2" x="3.5" y="68.42" width="58.45" height="10.43"/><polygon class="cls-2" points="61.95 68.36 61.95 68.84 33.55 68.81 32.28 68.81 3.5 68.8 3.5 68.38 12.25 61.34 15.23 61.34 32.28 61.36 33.55 61.36 53.14 61.37 61.95 68.36"/><polygon class="cls-3" points="33.55 0 33.55 78.85 3.5 78.85 3.5 68.38 12.25 61.34 15.23 61.34 15.23 56.06 10.92 56.06 23.73 36.39 0 48.54 0 8.42 24.61 21.02 10.92 0 33.55 0"/></g></g></svg>