<svg xmlns="http://www.w3.org/2000/svg" viewBox="0 0 44.38 66.26"><defs><style>.cls-1{fill:#fdfefe;}.cls-2{fill:#92a5a1;}.cls-3{fill:#fff;}.cls-4{fill:#0a0e0f;opacity:0.09;}</style></defs><title>Asset 14</title><g id="Layer_2" data-name="Layer 2"><g id="Layer_1-2" data-name="Layer 1"><polygon class="cls-1" points="34.05 19.67 34.05 19.88 30.4 23.42 13.29 23.42 9.59 19.91 9.59 19.67 34.05 19.67"/><rect class="cls-2" x="13.02" y="23.42" width="17.73" height="3.05"/><rect class="cls-2" x="15" y="17.62" width="14.14" height="1.98"/><rect class="cls-1" x="15" y="14.16" width="14.14" height="3.46"/><polygon class="cls-3" points="43.64 50.48 0.5 50.48 0.55 50.37 13.03 26.47 30.71 26.47 43.56 50.34 43.64 50.48"/><rect class="cls-1" y="59.73" width="44.38" height="6.54"/><polygon class="cls-1" points="44.38 59.69 44.38 59.99 22.19 59.97 21.85 59.97 0 59.96 0 59.7 6.64 55.29 6.89 55.29 21.85 55.3 22.07 55.3 37.69 55.31 44.38 59.69"/><polygon class="cls-1" points="43.64 50.34 43.64 50.51 37.18 53.41 22.41 53.42 21.89 53.42 7 53.43 0.64 50.64 0.5 50.58 0.5 50.37 0.77 50.37 21.89 50.36 22.41 50.36 43.56 50.34 43.64 50.34"/><rect class="cls-2" x="6.89" y="53.43" width="30.72" height="1.86"/><path class="cls-1" d="M32.39,8.78a8.18,8.18,0,0,1-3.25,6.39,11.32,11.32,0,0,1-7.07,2.38h-.18A11.29,11.29,0,0,1,15,15.17a8.18,8.18,0,0,1-3.25-6.39C11.75,4,16.27.08,21.89,0h.18C27.77,0,32.39,3.93,32.39,8.78Z"/><path class="cls-4" d="M21.89,0V19.6H15V15.17a8.18,8.18,0,0,1-3.25-6.39C11.75,4,16.27.08,21.89,0Z"/><polygon class="cls-4" points="9.59 19.67 21.89 19.67 21.89 66.27 0 66.27 0 59.7 6.64 55.29 6.89 55.29 6.89 53.43 7 53.43 0.64 50.64 0.5 50.58 0.5 50.37 0.55 50.37 13.03 26.47 13.02 26.47 13.02 23.42 13.29 23.42 9.59 19.91 9.59 19.67"/></g></g></svg>