<svg xmlns="http://www.w3.org/2000/svg" viewBox="0 0 89.04 71.89"><defs><style>.cls-1{fill:#fdfefe;}.cls-2{fill:#92a5a1;}.cls-3{fill:#231f20;opacity:0.12;}</style></defs><title>Asset 15</title><g id="Layer_2" data-name="Layer 2"><g id="Layer_1-2" data-name="Layer 1"><ellipse class="cls-1" cx="85.23" cy="10.39" rx="3.82" ry="3.94"/><rect class="cls-2" x="26.41" y="49.68" width="36.25" height="4.91"/><rect class="cls-1" x="22.84" y="41.65" width="43.67" height="8.28"/><polygon class="cls-1" points="39.46 35.12 34.2 41.65 32.26 44.01 27.7 49.68 27.52 49.88 27.38 49.68 22.84 42.44 5.58 15.04 3.35 11.52 6.93 13.86 32.26 30.42 39.46 35.12"/><polygon class="cls-1" points="64.19 48.6 86.19 8.89 51.65 34.69 64.19 48.6"/><polygon class="cls-1" points="50.08 42.95 45.34 44.46 45.08 44.55 44.89 44.62 44.69 44.68 44.66 44.69 32.26 48.62 32.26 2.86 34.27 7.31 44.89 31.27 45.07 31.67 45.07 31.68 45.08 31.7 45.34 32.27 49.5 41.65 50.08 42.95"/><polygon class="cls-1" points="58.26 46.34 45.33 44.74 45.08 44.72 44.69 44.68 44.66 44.68 39.75 44.07 40.8 41.65 40.8 41.64 45.07 31.68 45.07 31.67 45.08 31.65 45.33 31.06 55.49 7.42 57.72 2.24 57.78 7.82 57.78 7.84 58.07 29.89 58.07 29.9 58.2 41.64 58.2 41.65 58.22 41.98 58.26 46.34"/><path class="cls-1" d="M7.63,11.59a4,4,0,0,1-.7,2.27,3.6,3.6,0,0,1-1.35,1.19,3.35,3.35,0,0,1-1.76.48,3.94,3.94,0,0,1,0-7.88A3.88,3.88,0,0,1,7.63,11.59Z"/><path class="cls-1" d="M36.09,4a3.93,3.93,0,0,1-1.82,3.35,3.57,3.57,0,0,1-2,.59A3.87,3.87,0,0,1,28.46,4a3.82,3.82,0,1,1,7.63,0Z"/><ellipse class="cls-1" cx="57.29" cy="3.94" rx="3.82" ry="3.94"/><rect class="cls-1" x="15.85" y="61.46" width="58.45" height="10.43"/><polygon class="cls-1" points="74.3 61.4 74.3 61.88 45.08 61.85 44.63 61.85 15.85 61.84 15.85 61.42 24.59 54.38 26.41 54.38 44.63 54.4 45.08 54.4 62.66 54.41 65.49 54.41 74.3 61.4"/><path class="cls-3" d="M45.08,31.65V71.89H15.85V61.42l8.74-7h1.82V49.93H22.84V42.44L5.58,15.05a3.35,3.35,0,0,1-1.76.48,3.94,3.94,0,0,1,0-7.88,3.88,3.88,0,0,1,3.81,3.94,4,4,0,0,1-.7,2.27L32.26,30.42V7.9A3.87,3.87,0,0,1,28.46,4a3.82,3.82,0,1,1,7.63,0,3.93,3.93,0,0,1-1.82,3.35l10.62,24,.18.39Z"/></g></g></svg>